<svg xmlns="http://www.w3.org/2000/svg" viewBox="0 0 30.763 25.516">
  <defs>
    <style>
      .cls-1 {
        fill: #0c0c0b;
        opacity: 0.16;
      }
    </style>
  </defs>
  <g id="Group_2168" data-name="Group 2168" transform="translate(-4745.833 5984.309)">
    <circle id="Ellipse_3641" data-name="Ellipse 3641" class="cls-1" cx="5.817" cy="5.817" r="5.817" transform="translate(4755.398 -5981.49)"/>
    <path id="Path_16701" data-name="Path 16701" class="cls-1" d="M553.39,51.647a10.34,10.34,0,0,0-7.8,9.445.544.544,0,0,0,.54.57h19.489a.564.564,0,0,0,.54-.57,10.3,10.3,0,0,0-7.8-9.445.511.511,0,0,0-.3,0,7.639,7.639,0,0,1-2.219.36,6.882,6.882,0,0,1-2.219-.36A.328.328,0,0,0,553.39,51.647Z" transform="translate(4205.336 -6020.455)"/>
    <path id="Path_16702" data-name="Path 16702" class="cls-1" d="M549.875,1.649A4.906,4.906,0,0,0,541.3,4.917a4.955,4.955,0,0,0,4.078,4.857,7.013,7.013,0,0,1-.09-1.139A7.53,7.53,0,0,1,549.875,1.649Z" transform="translate(4208.341 -5984.309)"/>
    <path id="Path_16703" data-name="Path 16703" class="cls-1" d="M533.637,44.2H529.05a.449.449,0,0,1-.45-.48,8.7,8.7,0,0,1,6.6-7.976.328.328,0,0,1,.24,0,6.158,6.158,0,0,0,1.289.27,7.809,7.809,0,0,0,2.309,3.448A11.863,11.863,0,0,0,533.637,44.2Z" transform="translate(4217.233 -6009.322)"/>
    <path id="Path_16704" data-name="Path 16704" class="cls-1" d="M589.9,1.649a4.906,4.906,0,0,1,8.575,3.268A4.955,4.955,0,0,1,594.4,9.775a7.006,7.006,0,0,0,.09-1.139A7.53,7.53,0,0,0,589.9,1.649Z" transform="translate(4174.313 -5984.309)"/>
    <path id="Path_16705" data-name="Path 16705" class="cls-1" d="M601.8,44.2h4.587a.449.449,0,0,0,.45-.48,8.7,8.7,0,0,0-6.6-7.976.328.328,0,0,0-.24,0,6.157,6.157,0,0,1-1.289.27,7.807,7.807,0,0,1-2.309,3.448A11.863,11.863,0,0,1,601.8,44.2Z" transform="translate(4169.762 -6009.322)"/>
  </g>
</svg>
