<svg xmlns="http://www.w3.org/2000/svg" viewBox="0 0 20.811 25.309">
  <defs>
    <style>
      .cls-1 {
        fill: #0c0c0b;
        opacity: 0.16;
      }
    </style>
  </defs>
  <path id="Path_16722" data-name="Path 16722" class="cls-1" d="M19.768,18.163l-4.942-5.687a3.079,3.079,0,0,1-.772-1.995V3.573h.734a2.284,2.284,0,0,0,2.432-1.7,1.643,1.643,0,0,0-.656-1.31A2.715,2.715,0,0,0,14.9,0H5.985A2.284,2.284,0,0,0,3.552,1.7a1.483,1.483,0,0,0,.656,1.31,2.613,2.613,0,0,0,1.66.536H6.68v6.908a3.079,3.079,0,0,1-.772,1.995L1,18.163a3.911,3.911,0,0,0-1,2.561c0,2.531,2.664,4.585,5.985,4.585h8.842c3.282,0,5.985-2.054,5.985-4.615A4.162,4.162,0,0,0,19.768,18.163Z" transform="translate(0)"/>
</svg>
