<svg xmlns="http://www.w3.org/2000/svg" viewBox="0 0 56.693 56.693">
  <defs>
    <style>
      .cls-1 {
        fill: #b3a0cc;
      }

      .cls-2 {
        fill: none;
        stroke: #fff;
      }

      .cls-3 {
        fill: #fff;
      }
    </style>
  </defs>
  <g id="Group_2969" data-name="Group 2969" transform="translate(-45.147 -420.716)">
    <circle id="Ellipse_3536" data-name="Ellipse 3536" class="cls-1" cx="28.347" cy="28.347" r="28.347" transform="translate(45.147 420.716)"/>
    <circle id="Ellipse_3578" data-name="Ellipse 3578" class="cls-2" cx="25.347" cy="25.347" r="25.347" transform="translate(48.147 423.716)"/>
    <g id="Group_1997" data-name="Group 1997" transform="translate(58.824 429.57)">
      <g id="Group_1992" data-name="Group 1992" transform="translate(0 0.1)">
        <g id="Group_1986" data-name="Group 1986" transform="translate(6.564)">
          <path id="Path_3377" data-name="Path 3377" class="cls-3" d="M11.9,19.021c-4.634,0-8.5-4.248-8.5-9.46S7.261.1,11.9.1s8.5,4.248,8.5,9.46C20.2,14.773,16.529,19.021,11.9,19.021Zm0-17.762c-3.861,0-6.951,3.668-6.951,8.109s3.089,8.109,6.951,8.109,6.951-3.668,6.951-8.109S15.757,1.258,11.9,1.258Z" transform="translate(-3.4 -0.1)"/>
        </g>
        <g id="Group_1987" data-name="Group 1987" transform="translate(11.005 16.411)">
          <path id="Path_3378" data-name="Path 3378" class="cls-3" d="M6.665,13.234a.512.512,0,0,1-.579-.579A15.312,15.312,0,0,1,5.7,9.372.831.831,0,0,1,6.472,8.6a.831.831,0,0,1,.772.772,11.686,11.686,0,0,0,.386,2.9c-.193.579-.386.965-.965.965Z" transform="translate(-5.7 -8.6)"/>
        </g>
        <g id="Group_1988" data-name="Group 1988" transform="translate(17.304 16.411)">
          <path id="Path_3379" data-name="Path 3379" class="cls-3" d="M9.614,13.234h0c-.579,0-.772-.386-.579-.772a13.737,13.737,0,0,0,.193-3.089A.831.831,0,0,1,10,8.6a.831.831,0,0,1,.772.772,15.312,15.312,0,0,1-.386,3.282C10.193,13.041,10,13.234,9.614,13.234Z" transform="translate(-8.962 -8.6)"/>
        </g>
        <g id="Group_1989" data-name="Group 1989" transform="translate(11.34 19.835)">
          <path id="Path_3380" data-name="Path 3380" class="cls-3" d="M9.593,17.375h0a1,1,0,0,1-.772-.386L8.628,16.6c-.193-.386-.579-.965-.772-1.351A12.931,12.931,0,0,1,5.925,11.2c-.193-.386.193-.772.579-.772.386-.193.772.193.772.579a29.667,29.667,0,0,0,1.738,3.668,4.22,4.22,0,0,1,.579.965c.193-.386.386-.579.579-.965A7.971,7.971,0,0,0,11.91,11c.193-.386.386-.579.772-.579a1.035,1.035,0,0,1,.579.772,15.287,15.287,0,0,1-1.931,4.054,8.4,8.4,0,0,0-.772,1.351l-.193.386C9.979,17.182,9.786,17.375,9.593,17.375Z" transform="translate(-5.873 -10.373)"/>
        </g>
        <g id="Group_1990" data-name="Group 1990" transform="translate(0 19.886)">
          <path id="Path_3381" data-name="Path 3381" class="cls-3" d="M28.574,25.073H1.351A1.32,1.32,0,0,1,0,23.722V18.509a3.647,3.647,0,0,1,2.124-3.475L11.391,10.4h.579a.512.512,0,0,1,.579.579,29.667,29.667,0,0,0,1.738,3.668,4.22,4.22,0,0,1,.579.965c.193-.386.386-.579.579-.965a7.971,7.971,0,0,0,1.738-3.668.616.616,0,0,1,.579-.579h.579l9.267,4.634a4.068,4.068,0,0,1,2.124,3.475v5.213A1.086,1.086,0,0,1,28.574,25.073ZM11.584,11.945,2.9,16.385A2.679,2.679,0,0,0,1.545,18.7v5.213H28.768V18.7a2.679,2.679,0,0,0-1.351-2.317l-8.688-4.441a13.518,13.518,0,0,1-1.738,3.282,8.4,8.4,0,0,0-.772,1.351l-.193.386c-.579.193-.772.386-.965.386h0c-.193,0-.386-.193-.579-.386l-.193-.386c-.193-.386-.579-.965-.772-1.351A15.744,15.744,0,0,1,11.584,11.945Z" transform="translate(0 -10.4)"/>
        </g>
        <g id="Group_1991" data-name="Group 1991" transform="translate(6.875 5.213)">
          <path id="Path_3382" data-name="Path 3382" class="cls-3" d="M15.414,5.7a13.937,13.937,0,0,1-4.054-.772h0a8.922,8.922,0,0,0-6.757,0,.705.705,0,0,1-.965-.386.705.705,0,0,1,.386-.965c.193,0,4.054-1.738,7.916,0h0a8.922,8.922,0,0,0,6.757,0,.705.705,0,0,1,.965.386.705.705,0,0,1-.386.965A9.819,9.819,0,0,1,15.414,5.7Z" transform="translate(-3.561 -2.8)"/>
        </g>
      </g>
      <g id="Group_1993" data-name="Group 1993" transform="translate(20.852 22.11)">
        <path id="Path_3383" data-name="Path 3383" class="cls-3" d="M11.572,15.748a.831.831,0,0,1-.772-.772v-2.7a.772.772,0,1,1,1.545,0v2.7C12.151,15.361,11.958,15.748,11.572,15.748Z" transform="translate(-10.8 -11.5)"/>
      </g>
      <g id="Group_1994" data-name="Group 1994" transform="translate(7.337 22.11)">
        <path id="Path_3384" data-name="Path 3384" class="cls-3" d="M4.572,15.748a.831.831,0,0,1-.772-.772v-2.7a.831.831,0,0,1,.772-.772.831.831,0,0,1,.772.772v2.7C5.151,15.361,4.958,15.748,4.572,15.748Z" transform="translate(-3.8 -11.5)"/>
      </g>
      <g id="Group_1995" data-name="Group 1995" transform="translate(19.307 25.199)">
        <path id="Path_3385" data-name="Path 3385" class="cls-3" d="M12.317,17.734a2.317,2.317,0,1,1,2.317-2.317A2.492,2.492,0,0,1,12.317,17.734Zm0-3.475a.965.965,0,1,0,.965.965A1.034,1.034,0,0,0,12.317,14.258Z" transform="translate(-10 -13.1)"/>
      </g>
      <g id="Group_1996" data-name="Group 1996" transform="translate(4.248 25.006)">
        <path id="Path_3386" data-name="Path 3386" class="cls-3" d="M8.764,19.757a.831.831,0,0,1-.772-.772v-2.51a2.124,2.124,0,1,0-4.248,0v2.51a.831.831,0,0,1-.772.772.831.831,0,0,1-.772-.772v-2.51a3.475,3.475,0,1,1,6.951,0v2.51C9.537,19.371,9.151,19.757,8.764,19.757Z" transform="translate(-2.2 -13)"/>
      </g>
    </g>
  </g>
</svg>
