<svg xmlns="http://www.w3.org/2000/svg" viewBox="0 0 56.693 56.693">
  <defs>
    <style>
      .cls-1 {
        fill: #b3a0cc;
      }

      .cls-2 {
        fill: none;
        stroke: #fff;
      }

      .cls-3 {
        fill: #fff;
      }
    </style>
  </defs>
  <g id="Group_2971" data-name="Group 2971" transform="translate(-45.146 -1154.717)">
    <circle id="Ellipse_3762" data-name="Ellipse 3762" class="cls-1" cx="28.347" cy="28.347" r="28.347" transform="translate(45.146 1154.717)"/>
    <circle id="Ellipse_3764" data-name="Ellipse 3764" class="cls-2" cx="25.347" cy="25.347" r="25.347" transform="translate(48.146 1157.717)"/>
    <g id="Group_2579" data-name="Group 2579" transform="translate(62.312 1166.747)">
      <g id="Group_2011" data-name="Group 2011" transform="translate(5.923 19.63)">
        <g id="Group_2008" data-name="Group 2008" transform="translate(0 0.338)">
          <path id="Path_3393" data-name="Path 3393" class="cls-3" d="M19.746,22.292h-11a5.246,5.246,0,1,1,0-10.492h11a5.2,5.2,0,0,1,5.246,5.246A5.166,5.166,0,0,1,19.746,22.292Zm-11-9.308a4.118,4.118,0,0,0-4.061,4.061,4.416,4.416,0,0,0,1.185,2.877,3.963,3.963,0,0,0,2.877,1.185h11a4.118,4.118,0,0,0,4.061-4.061,4.416,4.416,0,0,0-1.185-2.877,3.963,3.963,0,0,0-2.877-1.185h-11Z" transform="translate(-3.5 -11.8)"/>
        </g>
        <g id="Group_2009" data-name="Group 2009" transform="translate(9.984)">
          <path id="Path_3394" data-name="Path 3394" class="cls-3" d="M10.077,22.431a.728.728,0,0,1-.677-.677V12.277a.677.677,0,0,1,1.354,0v9.477A.62.62,0,0,1,10.077,22.431Z" transform="translate(-9.4 -11.6)"/>
        </g>
        <g id="Group_2010" data-name="Group 2010" transform="translate(14.723 2.708)">
          <path id="Path_3395" data-name="Path 3395" class="cls-3" d="M15.585,17.261a.728.728,0,0,1-.677-.677,1.955,1.955,0,0,0-2.031-2.031.677.677,0,0,1,0-1.354,3.213,3.213,0,0,1,3.215,3.215C16.261,17.092,15.923,17.261,15.585,17.261Z" transform="translate(-12.2 -13.2)"/>
        </g>
      </g>
      <g id="Group_2015" data-name="Group 2015">
        <g id="Group_2012" data-name="Group 2012" transform="translate(0 4.4)">
          <path id="Path_3396" data-name="Path 3396" class="cls-3" d="M5.077,28.661H3.046A3.033,3.033,0,0,1,0,25.615V11.061A4.238,4.238,0,0,1,1.354,8.015,4.824,4.824,0,0,1,3.723,6.661V3.277A.728.728,0,0,1,4.4,2.6h8.461a.728.728,0,0,1,.677.677V6.661a4.383,4.383,0,0,1,3.723,4.4v4.569a.677.677,0,1,1-1.354,0V11.061a3.213,3.213,0,0,0-3.215-3.215.728.728,0,0,1-.677-.677V3.785H4.908V7.169a.728.728,0,0,1-.677.677,3.217,3.217,0,0,0-2.2.846,4.043,4.043,0,0,0-.846,2.369V25.615a1.878,1.878,0,0,0,1.862,1.862H5.077a.728.728,0,0,1,.677.677C5.585,28.492,5.415,28.661,5.077,28.661Z" transform="translate(0 -2.6)"/>
        </g>
        <g id="Group_2013" data-name="Group 2013" transform="translate(1.862)">
          <path id="Path_3397" data-name="Path 3397" class="cls-3" d="M14.131,5.585H1.608A.449.449,0,0,1,1.1,5.077V.677C1.1.338,1.269,0,1.608,0H14.131c.338,0,.508.338.508.677v4.4A.449.449,0,0,1,14.131,5.585ZM2.285,4.4H13.454V1.185H2.285Z" transform="translate(-1.1)"/>
        </g>
        <g id="Group_2014" data-name="Group 2014" transform="translate(3.215 14.046)">
          <path id="Path_3398" data-name="Path 3398" class="cls-3" d="M12.223,9.485H2.408A.449.449,0,0,1,1.9,8.977.728.728,0,0,1,2.577,8.3h9.646a.728.728,0,0,1,.677.677C12.731,9.315,12.561,9.485,12.223,9.485Z" transform="translate(-1.9 -8.3)"/>
        </g>
      </g>
    </g>
  </g>
</svg>
