<svg xmlns="http://www.w3.org/2000/svg" viewBox="0 0 56.693 56.693">
  <defs>
    <style>
      .cls-1 {
        fill: #b3a0cc;
      }

      .cls-2 {
        fill: none;
        stroke: #fff;
      }

      .cls-3 {
        fill: #fff;
      }
    </style>
  </defs>
  <g id="Group_2970" data-name="Group 2970" transform="translate(-45.146 -801.716)">
    <circle id="Ellipse_3761" data-name="Ellipse 3761" class="cls-1" cx="28.347" cy="28.347" r="28.347" transform="translate(45.146 801.716)"/>
    <circle id="Ellipse_3763" data-name="Ellipse 3763" class="cls-2" cx="25.347" cy="25.347" r="25.347" transform="translate(48.146 804.716)"/>
    <g id="Group_2578" data-name="Group 2578" transform="translate(55.477 810.465)">
      <path id="Path_3388" data-name="Path 3388" class="cls-3" d="M34.745,11.705a2.35,2.35,0,0,0-2.733-.586l-.586.586-.39-.39a2.709,2.709,0,0,0-3.318-.781l-4.294,1.952L10.931,10.729a6.267,6.267,0,0,0-2.733.2L1.171,13.462a.713.713,0,0,0-.39.976.713.713,0,0,0,.976.39l7.027-2.538a3.877,3.877,0,0,1,2.147-.2l12.688,1.757a1.237,1.237,0,0,1,1.171.976h0a.717.717,0,0,1-.2.586l-.2.2H13.273a.781.781,0,1,0,0,1.562h3.318A6.034,6.034,0,0,0,20.3,19.708a3.394,3.394,0,0,0,3.123-1.171,10.728,10.728,0,0,1,1.757-1.366c.2-.2.39-.2.586-.39a18,18,0,0,1,1.562-.976l4.1-2.538h0l1.171-.781c.39-.2.586-.2.976.2a.887.887,0,0,1,0,.976l-1.952,1.562a63.5,63.5,0,0,1-5.661,4.489L20.5,23.417a2.807,2.807,0,0,1-2.733.39L7.222,20.1a4.839,4.839,0,0,0-3.318,0L.39,21.465c-.39,0-.39.586-.39.781a.713.713,0,0,0,.976.39L4.489,21.27a2.723,2.723,0,0,1,2.147,0l10.541,3.709a3.805,3.805,0,0,0,1.562.2,3.923,3.923,0,0,0,2.538-.781l5.465-3.709A66.366,66.366,0,0,0,32.6,16.195l1.952-1.562A2.133,2.133,0,0,0,34.745,11.705Zm-12.1,5.661a2.8,2.8,0,0,1-1.952.781,4.653,4.653,0,0,1-2.147-1.171h4.685C22.838,17.171,22.643,17.171,22.643,17.366ZM28.3,11.705a1.224,1.224,0,0,1,1.562.39l.2.2-3.318,1.952c-.2.2-.586.39-.781.586a.717.717,0,0,0-.2-.586c0-.2-.2-.39-.39-.586l-.2-.2c0-.2-.2-.2-.2-.39Z" transform="translate(0 9.784)"/>
      <g id="Group_2002" data-name="Group 2002" transform="translate(9.465 -0.019)">
        <g id="Group_2001" data-name="Group 2001">
          <path id="Path_3389" data-name="Path 3389" class="cls-3" d="M14.9,18.561c-.586,0-1.366-.39-7.222-6.441L6.9,11.339A6.816,6.816,0,0,1,4.949,5.288,6.219,6.219,0,0,1,10.024.018,5.153,5.153,0,0,1,14.9,1.97,7.643,7.643,0,0,1,16.855.408a7.587,7.587,0,0,1,2.928-.39A5.563,5.563,0,0,1,23.492,2.36a6.128,6.128,0,0,1,1.171,3.123,6.816,6.816,0,0,1-1.952,6.051l-.586.586-.586.586-3.123,3.123h0C15.684,18.561,15.294,18.561,14.9,18.561ZM14.708,17ZM10.8,1.384h-.586a4.385,4.385,0,0,0-3.709,4.1,5.3,5.3,0,0,0,1.366,4.88l.781.781C11.976,14.657,14.123,16.609,14.9,17c.2-.2.976-.781,2.538-2.147l3.709-3.709.781-.781a5.7,5.7,0,0,0,.586-7.222,4.742,4.742,0,0,0-2.733-1.757,2.71,2.71,0,0,0-2.147.39,5.537,5.537,0,0,0-1.952,1.757,1.48,1.48,0,0,1-.781.39h0c-.2,0-.39-.2-.586-.39A4.112,4.112,0,0,0,10.8,1.384Zm7.222,13.859Z" transform="translate(-4.849 0.019)"/>
        </g>
      </g>
    </g>
  </g>
</svg>
