<svg xmlns="http://www.w3.org/2000/svg" viewBox="0 0 27.177 27.208">
  <defs>
    <style>
      .cls-1 {
        fill: none;
        stroke: #b7b7b7;
        stroke-linecap: round;
        stroke-miterlimit: 10;
        stroke-width: 1.5px;
      }
    </style>
  </defs>
  <g id="Group_2128" data-name="Group 2128" transform="translate(0.25 0.25)">
    <path id="Path_3226" data-name="Path 3226" class="cls-1" d="M3.775,7.264a10.755,10.755,0,0,0-1.5,3.611.3.3,0,0,1-.306.245H1.724A1.228,1.228,0,0,0,.5,12.344v2.02a1.228,1.228,0,0,0,1.224,1.224h.245a.3.3,0,0,1,.306.245,10.755,10.755,0,0,0,1.5,3.611.279.279,0,0,1-.031.367L3.56,20a1.219,1.219,0,0,0,0,1.744l1.408,1.408a1.219,1.219,0,0,0,1.744,0l.184-.184a.279.279,0,0,1,.367-.031,10.755,10.755,0,0,0,3.611,1.5.3.3,0,0,1,.245.306v.245a1.228,1.228,0,0,0,1.224,1.224h1.989a1.228,1.228,0,0,0,1.224-1.224v-.245a.3.3,0,0,1,.245-.306,11.42,11.42,0,0,0,3.611-1.5.279.279,0,0,1,.367.031l.184.184a1.219,1.219,0,0,0,1.744,0l1.408-1.408a1.219,1.219,0,0,0,0-1.744l-.184-.184a.279.279,0,0,1-.031-.367,10.755,10.755,0,0,0,1.5-3.611.3.3,0,0,1,.306-.245h.245a1.228,1.228,0,0,0,1.224-1.224v-2.02a1.228,1.228,0,0,0-1.224-1.224h-.245a.3.3,0,0,1-.306-.245,10.755,10.755,0,0,0-1.5-3.611.279.279,0,0,1,.031-.367l.184-.184a1.219,1.219,0,0,0,0-1.744L21.709,3.56a1.219,1.219,0,0,0-1.744,0l-.184.184a.279.279,0,0,1-.367.031,11.42,11.42,0,0,0-3.611-1.5.3.3,0,0,1-.245-.306V1.724A1.228,1.228,0,0,0,14.333.5H12.344A1.228,1.228,0,0,0,11.12,1.724v.245a.3.3,0,0,1-.245.306,10.755,10.755,0,0,0-3.611,1.5A.279.279,0,0,1,6.9,3.744L6.713,3.56a1.219,1.219,0,0,0-1.744,0L3.56,4.968a1.219,1.219,0,0,0,0,1.744l.184.184A.321.321,0,0,1,3.775,7.264Z"/>
    <circle id="Ellipse_3493" data-name="Ellipse 3493" class="cls-1" cx="6.06" cy="6.06" r="6.06" transform="translate(7.294 7.294)"/>
  </g>
</svg>
