<svg xmlns="http://www.w3.org/2000/svg" viewBox="0 0 25.486 25.486">
  <defs>
    <style>
      .cls-1 {
        fill: #0c0c0b;
        opacity: 0.16;
      }

      .cls-2 {
        fill: #fff;
      }
    </style>
  </defs>
  <g id="Group_2164" data-name="Group 2164" transform="translate(-4587.339 5984.309)">
    <circle id="Ellipse_3646" data-name="Ellipse 3646" class="cls-1" cx="12.743" cy="12.743" r="12.743" transform="translate(4587.339 -5984.309)"/>
    <g id="Group_2163" data-name="Group 2163" transform="translate(4595.292 -5980.081)">
      <path id="Path_16711" data-name="Path 16711" class="cls-2" d="M30.923,16.829a3.4,3.4,0,0,0-2.489,1.019.67.67,0,0,1-.959-.03l-.78-.9a.639.639,0,0,1-.03-.84,5.048,5.048,0,0,1,1.619-1.319,5.8,5.8,0,0,1,2.788-.66,5.187,5.187,0,0,1,3.658,1.229,3.86,3.86,0,0,1,1.349,3,4.652,4.652,0,0,1-.63,2.549,9.064,9.064,0,0,1-1.739,1.889c-.09.09-.21.18-.36.3s-.27.24-.36.3a9.139,9.139,0,0,0-.63.6,3.443,3.443,0,0,0-.24.3,1.567,1.567,0,0,0-.21.36,2.049,2.049,0,0,0-.12.39c-.03-.03-.03.06-.03.18a.665.665,0,0,1-.66.66H29.874a.64.64,0,0,1-.66-.63,3.17,3.17,0,0,1,.06-.929,2.777,2.777,0,0,1,.6-1.229c.3-.36.57-.63.75-.81.21-.18.51-.42.959-.75a3.186,3.186,0,0,0,1.589-2.639,2,2,0,0,0-.63-1.469A2.377,2.377,0,0,0,30.923,16.829Z" transform="translate(-26.522 -14.1)"/>
      <path id="Path_16712" data-name="Path 16712" class="cls-2" d="M33.9,60.569a1.71,1.71,0,0,1,.54-1.229,1.831,1.831,0,0,1,1.349-.54,1.726,1.726,0,0,1,1.259.54,1.8,1.8,0,0,1,.51,1.229,1.932,1.932,0,0,1-.51,1.349,1.659,1.659,0,0,1-1.259.57,1.747,1.747,0,0,1-1.349-.57A1.93,1.93,0,0,1,33.9,60.569Z" transform="translate(-31.688 -45.397)"/>
    </g>
  </g>
</svg>
