<svg xmlns="http://www.w3.org/2000/svg" viewBox="0 0 20.874 23.677">
  <defs>
    <style>
      .cls-1 {
        fill: none;
        stroke: #b7b7b7;
        stroke-miterlimit: 10;
        stroke-width: 1.7px;
      }
    </style>
  </defs>
  <path id="Path_16882" data-name="Path 16882" class="cls-1" d="M10.421,22.969c2.49,0,6.692.233,8.715-1.686,1.167-1.115.726-2.853-.259-3.943-1.453-1.608-3.683-1.764-5.317-3.061-1.686-1.323.078-2.905.96-4.176,2.231-3.242.311-9.1-4.1-9.1s-6.329,5.862-4.1,9.156c.856,1.271,2.646,2.853.96,4.176C5.648,15.6,3.418,15.759,1.965,17.393.979,18.482.538,20.22,1.706,21.335c2.023,1.893,6.225,1.634,8.715,1.634" transform="translate(0.017 -0.15)"/>
</svg>
